<svg xmlns="http://www.w3.org/2000/svg" viewBox="0 0 3519.3 1555.74"><defs><style>.cls-1{fill:#ff7d0a;}</style></defs><title>资源 1</title><g id="图层_2" data-name="图层 2"><g id="图层_1-2" data-name="图层 1"><path class="cls-1" d="M353,299.36H53a40,40,0,0,1,0-80H353a40,40,0,0,1,0,80Z"/><path class="cls-1" d="M203,952.87a40,40,0,0,1-40-40V143.36a40,40,0,1,1,80,0V912.87A40,40,0,0,1,203,952.87Z"/><path class="cls-1" d="M353,487.36H53a40,40,0,0,1,0-80H353a40,40,0,0,1,0,80Z"/><path class="cls-1" d="M677.85,183.36h-288a40,40,0,1,1,0-80h288a40,40,0,0,1,0,80Z"/><path class="cls-1" d="M453,848.2a40,40,0,0,1-40-40V163.36a40,40,0,0,1,80,0V808.2A40,40,0,0,1,453,848.2Z"/><path class="cls-1" d="M633,952.87a40,40,0,0,1-40-40V143.36a40,40,0,0,1,80,0V912.87A40,40,0,0,1,633,952.87Z"/><path class="cls-1" d="M353,716.3H221a40,40,0,0,1,0-80H353a40,40,0,0,1,0,80Z"/><path class="cls-1" d="M337,901a40,40,0,0,1-10.7-78.54l296-82.32a40,40,0,0,1,21.44,77.08l-296,82.31A39.93,39.93,0,0,1,337,901Z"/><path class="cls-1" d="M633,403.36H453a40,40,0,0,1,0-80H633a40,40,0,0,1,0,80Z"/><path class="cls-1" d="M633,609.36H453a40,40,0,0,1,0-80H633a40,40,0,0,1,0,80Z"/><path class="cls-1" d="M711,919.36a40,40,0,0,1-24.72-71.47C769.75,782.43,831.05,685.58,868.53,560c31.8-106.53,38-207.39,38.93-258a2.58,2.58,0,0,0-2.58-2.62H739a40,40,0,0,1,0-80H904.88a82.57,82.57,0,0,1,82.57,84c-1,54.74-7.73,163.84-42.26,279.52C902.89,724.63,832.4,835,735.7,910.83A39.84,39.84,0,0,1,711,919.36Z"/><path class="cls-1" d="M975.33,899.17A40,40,0,0,1,939.49,877L702.9,401.17a40,40,0,0,1,71.64-35.62l236.58,475.8a40,40,0,0,1-35.79,57.82Z"/><path class="cls-1" d="M749.89,1062.41c-83.41,0-182.86-1.86-293.69-7.43-82-4.12-154.32-23.07-214.84-56.34A371.35,371.35,0,0,1,118.11,890.13c-55.2-76.41-64.89-151.2-65.27-154.35l79.4-9.73,0-.19c.08.6,8.41,60.33,52.84,120.28A292.29,292.29,0,0,0,282,929.68c49.4,26.67,109.36,42,178.22,45.41,326.2,16.39,551.6.22,553.84,0a40,40,0,0,1,5.9,79.79C1018.44,1055,916,1062.41,749.89,1062.41Z"/><circle class="cls-1" cx="1361.01" cy="221.82" r="32"/><path class="cls-1" d="M1360.88,293.82a72,72,0,1,1,71.78-79.15h0a72,72,0,0,1-64.5,78.79Q1364.5,293.82,1360.88,293.82ZM1369,221l-15.92,1.59A8,8,0,0,0,1369,221Zm-8-7.2-.78,0a8,8,0,0,0-7.17,8.76L1369,221a8,8,0,0,0-8-7.2Z"/><path class="cls-1" d="M1393,1062.47a40,40,0,0,1-40-40V509.36H1241a40,40,0,0,1,0-80h152a40,40,0,0,1,40,40V925.2l75.57-76.35a40,40,0,0,1,56.86,56.28l-144,145.48A40,40,0,0,1,1393,1062.47Z"/><path class="cls-1" d="M1907.35,1062.47c-69.61,0-138.07-7.76-178.56-16.26-53.11-11.15-81.68-41.6-96.29-65.19-15.36-24.81-18.69-47.18-19.2-51.41a40.38,40.38,0,0,1-.29-4.79V592.18c0-55,44.86-99.82,100-99.82h311a19.94,19.94,0,0,0,20-19.83V238.21a19.93,19.93,0,0,0-20-19.83H1651a40,40,0,0,1,0-80h373c55.14,0,100,44.78,100,99.83V472.53c0,55-44.86,99.83-100,99.83H1713a19.93,19.93,0,0,0-20,19.82v329a62.32,62.32,0,0,0,8.93,19.94c9.47,13.93,23.63,22.71,43.29,26.84,30.6,6.42,90,14.08,156.9,14.53,67.72.48,121.65-6.79,151.86-20.39,35.51-16,33.81-102.66,27.58-139.75a40,40,0,1,1,78.87-13.44,403.15,403.15,0,0,1,3.68,88.39c-3.69,48.62-20.09,112-77.28,137.75C2041.64,1055.36,1974,1062.47,1907.35,1062.47Z"/><path class="cls-1" d="M40,1023.09a40,40,0,0,1-38.11-52.2c69.31-216.63,58.14-417.12,58-419.12A40,40,0,0,1,139.79,547c.13,2.22,3.22,55.48-2.82,137.36-5.55,75.28-20.27,190.34-58.86,311A40,40,0,0,1,40,1023.09Z"/><path class="cls-1" d="M2920.62,0C2590,0,2322,268,2322,598.68s268,598.67,598.67,598.67,598.68-268,598.68-598.67S3251.26,0,2920.62,0ZM2533,635.36a40,40,0,1,1-80,0v-292a40,40,0,0,1,80,0Zm136,387.11a40,40,0,1,1-80,0V142.33a40,40,0,1,1,80,0Zm32-551.11a72,72,0,1,1,72,72A72.08,72.08,0,0,1,2701,471.36Zm611.45,548.09c-17.34,14.39-37,20.76-52.72,25.88-3.09,1-6,2-8.81,2.93-35.07,12.12-113.75,22.22-191.33,24.56q-19.17.59-36.75.57c-104.53,0-167.4-14.42-202.68-27.27a39.66,39.66,0,0,1-4.81-2.12c-62.22-32.46-82.58-78.08-88.7-110.64-8.28-44,2.6-93.69,32.33-147.62a411.72,411.72,0,0,1,44.15-64.56L3180,254.81h-375.6a40,40,0,0,1,0-80H3263.8A40,40,0,0,1,3294.91,240L2865,772c-.33.4-.66.8-1,1.18a332.46,332.46,0,0,0-35.67,52.61c-13.75,25.25-28.9,61.88-23,93,4.11,21.64,18.75,39,44.74,53.13,46.32,16.19,119.7,23.65,207.14,21,77.66-2.34,144.32-12.16,167.6-20.21,3.52-1.22,6.93-2.33,10.23-3.4,11.16-3.63,20.8-6.76,26.34-11.36a46.84,46.84,0,0,0,16.52-26.37c9.29-40.55,9.6-148.64,8.93-186.86a40,40,0,0,1,39.3-40.69h.71a40,40,0,0,1,40,39.3c.27,15.06,2.19,148.78-10.94,206.11A127.49,127.49,0,0,1,3312.46,1019.45Z"/><path class="cls-1" d="M324.26,1501.94a59.53,59.53,0,0,0,4.6,12.4c-37.2,28.4-42.4,32.8-45.4,36.8a46.66,46.66,0,0,0-9.6-9.2c4.2-3.6,12.6-12,12.6-22.79V1450h-31.2v-14.2h45.2v83.79Zm-21-85.19c-6.8-7.8-20.2-21.4-30.4-30.8l9.2-9.6c10.2,9,23.8,22,30.6,29.4Zm132.6,118.19v14.6h-121v-14.6h48V1374.55h14.8v64h43.8v14.2h-43.8v82.19Z"/><path class="cls-1" d="M882.26,1507.35a68.56,68.56,0,0,0,4.8,12.8c-33.2,23.59-38.4,27.59-41.4,31.39v.2a49.27,49.27,0,0,0-8.2-11c3.6-3,9.4-9.6,9.4-19.4V1450h-31.6v-14.4h46.2v86Zm-20.6-88.2c-6.2-8.6-19.8-22.4-30.8-32l10.2-9c10.6,9.2,24.6,22.2,31.4,30.6Zm105.4,119.19c12.4,0,14.4-5,15.6-33.19a46.42,46.42,0,0,0,14.4,6.19c-2.4,32.4-7.2,41.4-29,41.4h-45.8c-22.4,0-29.4-5-29.4-24.2v-76.39h75.4v-50.4h-79.2v-14.6h93.8v89.6h-14.6v-10.4h-60.4v62.19c0,8,2.6,9.8,15.4,9.8Z"/><path class="cls-1" d="M1371.86,1462.35c5.2-13,8.8-34.8,10.2-51l11.8,1.6c-1,16.4-4.6,39.2-9.8,53.8Zm30-89.4h14.4v182.59h-14.4Zm26.6,32c6.2,11.8,12.8,27,15.2,36.2l-11,5.6c-2.2-9.6-8.6-25.4-14.6-37Zm97.2,129.79c11,0,13.4-6.6,14.6-40.59a57.31,57.31,0,0,0,13.4,5c-2.2,42.19-8.2,50-28.6,50h-52.6c-24,0-35-9-35-23.8,0-12.8,3.8-27.4,83.8-119.39h-77.8v-14h92.6l3.4-.6,9.4,5a11.34,11.34,0,0,1-2,2.6c-89.6,101-94.8,115.2-94.8,124.79,0,7.6,7.8,11,19.4,11Z"/><path class="cls-1" d="M2031.86,1490.74a64.68,64.68,0,0,1-17.8,34c25.2,11.4,59.6,14.4,104,15.6a39.84,39.84,0,0,0-6.2,14.6c-46.2-2-82.6-6.4-109.8-20.8-13.4,8.8-32,16.2-58,21.6a62.13,62.13,0,0,0-8.8-13c23.8-4.6,40.8-10.2,53-17.2a96.64,96.64,0,0,1-24.6-28.19l12.4-5a84.57,84.57,0,0,0,24.2,24.8,48.65,48.65,0,0,0,16.2-26.41h-59.4V1414h61.8v-16.8h-80v-13.4h172.8v13.4h-77.6V1414h65v76.79Zm-60.6-44.39h47.6v-20h-47.6Zm47.2,32c.4-4,.4-8.2.4-12.2v-8h-47.6v20.2Zm66-20.2h-50.4v8.2c0,4-.2,8.2-.4,12h50.8Zm-50.4-31.8v20h50.4v-20Z"/><path class="cls-1" d="M2565.06,1412.75c-3.8,7.8-7.8,15.8-12.2,23.2h96.4v101c0,9-2,13.4-8.4,15.8-6.6,2.4-17.8,2.6-34.8,2.6-.6-4.4-2.8-10.4-4.8-14.6,13.2.6,25.2.4,28.8.4,3.4-.2,4.6-1.2,4.6-4.2v-20.79h-83.4v39.39h-14.6v-96.39a161.44,161.44,0,0,1-33.4,31.59,69.18,69.18,0,0,0-9.4-11.39c24-16.2,42.2-40.2,55-66.6h-50.2v-14h56.4a261.86,261.86,0,0,0,8.8-25.8l14.8,3.6c-2.4,7.4-4.8,15-7.8,22.2h101.8v14Zm69.6,36.6h-83.4v20.2h83.4Zm0,54v-20.8h-83.4v20.8Z"/><path class="cls-1" d="M3105.26,1527.34c13,6.8,30,8.8,52.4,8.8,9.2,0,68,0,79.8-.4a52.24,52.24,0,0,0-6,14.6h-73.8c-43.4,0-67.8-7-82.6-36.19-2.6,14.79-6.8,29-14.4,41.19-2-3-6.8-7.4-10-8.8,14-23.8,15.4-57.39,14.8-83.79l12.6.8c.2,8,.2,16.39-.4,25,3.6,12.19,8.2,21.39,14.2,28.19v-70.19h-36.2v-13.4h32V1410h-26.8v-13.2h26.8V1373h13.6v23.8h23.8V1410h-23.8v23.2h27.2v13.4h-23.2v26.2h22.6v13.19h-22.6Zm29.6-133.19h-9.2v-13h63.6v13h-8.6v90.2l8-2.6,2.2,11.19-10.2,3.6v32.6h-12.2v-28.6l-44,15-3.6-12.39c4.2-1.21,9-2.61,14-4Zm33.6,0h-21.4v23h21.4Zm0,34.8h-21.4v25.2h21.4Zm-21.4,66.4c6.8-2.2,14-4.61,21.4-7V1466h-21.4Zm39.2-98.2h35.2l2.4-.4,7.6,2.6c-2.6,27-7.2,51.4-13.6,72.2,7.4,15.8,13.8,31,17.4,42.19l-11.8,5c-2.6-8.4-6.6-19-11.2-30.39-5.6,15-12.2,27.59-19.6,37-2.2-2.8-6.8-8-9.8-10,9-10.8,16.2-25.6,22.2-43.59a490,490,0,0,0-23-44.6l10.8-3.8c5.6,9.8,11.4,20.6,17,31.4a320.65,320.65,0,0,0,8-45.2h-31.6Z"/><rect class="cls-1" x="0.48" y="1374.59" width="26.26" height="178.67"/><rect class="cls-1" x="3490.72" y="1374.59" width="26.26" height="178.67"/></g></g></svg>